<svg width="833" height="266" viewBox="0 0 833 266" fill="none" xmlns="http://www.w3.org/2000/svg">
<rect width="833" height="265.911" rx="35" fill="#6841EB"/>
<path d="M311.417 112.34L312.006 102.314H329.257V175H312.301L311.417 164.385C307.288 172.936 295.936 177.064 287.827 177.212C266.301 177.359 250.378 164.09 250.378 138.583C250.378 113.519 267.038 100.397 288.269 100.545C298 100.545 307.288 105.115 311.417 112.34ZM289.891 116.615C277.949 116.615 268.365 124.724 268.365 138.583C268.365 152.442 277.949 160.699 289.891 160.699C318.199 160.699 318.199 116.615 289.891 116.615Z" fill="white"/>
<path d="M376.779 117.353C365.279 117.353 356.138 125.462 356.138 138.583C356.138 151.263 365.279 159.962 376.779 159.962C388.132 159.962 397.863 151.705 397.863 138.583C397.863 125.904 388.132 117.353 376.779 117.353ZM399.042 71.942H417.03V175H400.222L399.042 164.975C393.44 173.673 384.446 176.622 375.6 176.622C354.222 176.622 338.151 162.468 338.151 138.583C338.151 113.519 353.927 100.545 375.158 100.545C382.824 100.545 394.767 104.673 399.042 112.192V71.942Z" fill="white"/>
<path d="M496.08 175H478.093V136.077C478.093 126.494 473.08 117.795 463.202 117.795C453.471 117.795 447.721 126.494 447.721 136.077V175H429.733V102.167H446.394L447.721 111.013C451.554 103.641 459.958 100.987 466.887 100.987C475.586 100.987 484.285 104.526 488.413 114.551C494.9 104.231 503.304 101.282 512.74 101.282C533.381 101.282 543.554 113.961 543.554 135.782V175H525.567V135.782C525.567 126.199 521.586 118.09 511.856 118.09C502.125 118.09 496.08 126.494 496.08 136.077V175Z" fill="white"/>
<path d="M576.947 102.019V175H558.959V102.019H576.947ZM557.337 81.8203C557.337 95.8268 578.568 95.8268 578.568 81.8203C578.568 67.8138 557.337 67.8138 557.337 81.8203Z" fill="white"/>
<path d="M590.278 102.314H606.938L608.265 110.718C613.868 101.724 621.387 100.397 628.759 100.397C636.278 100.397 643.503 103.346 647.483 107.327L639.374 122.955C635.689 119.859 632.297 118.237 626.4 118.237C616.964 118.237 608.265 123.25 608.265 136.667V175H590.278V102.314Z" fill="white"/>
<path d="M708.315 112.34L708.905 102.314H726.155V175H709.199L708.315 164.385C704.187 172.936 692.834 177.064 684.725 177.212C663.199 177.359 647.276 164.09 647.276 138.583C647.276 113.519 663.936 100.397 685.167 100.545C694.898 100.545 704.187 105.115 708.315 112.34ZM686.789 116.615C674.847 116.615 665.263 124.724 665.263 138.583C665.263 152.442 674.847 160.699 686.789 160.699C715.097 160.699 715.097 116.615 686.789 116.615Z" fill="white"/>
<path d="M738.44 71.942H756.28V175H738.44V71.942Z" fill="white"/>
<path d="M206.35 181.254C206.35 192.111 197.55 200.911 186.693 200.911C175.837 200.911 167.036 192.111 167.036 181.254C167.036 170.398 175.837 161.597 186.693 161.597C197.55 161.597 206.35 170.398 206.35 181.254Z" fill="#ADEE5B"/>
<path d="M61.0609 170.286L110.054 92.6094C121.664 74.2031 127.468 65 135.893 65C144.318 65 150.123 74.2031 161.732 92.6094L175.661 114.693C182.415 125.4 185.791 130.754 184.496 136.129C183.2 141.505 177.756 144.732 166.866 151.187L87.9749 197.953C78.7272 203.435 66.7961 200.56 61.0609 191.467C56.9797 184.996 56.9797 176.756 61.0609 170.286Z" fill="white"/>
</svg>
