<svg width="699" height="159" viewBox="0 0 699 159" fill="none" xmlns="http://www.w3.org/2000/svg">
<path d="M265.267 59.2838L265.841 49.5144H282.651V120.343H266.129L265.267 109.999C261.244 118.332 250.181 122.354 242.28 122.498C221.304 122.642 205.788 109.711 205.788 84.8568C205.788 60.4332 222.022 47.6467 242.711 47.7904C252.193 47.7904 261.244 52.2441 265.267 59.2838ZM244.291 63.4502C232.654 63.4502 223.316 71.352 223.316 84.8568C223.316 98.3616 232.654 106.407 244.291 106.407C271.875 106.407 271.875 63.4502 244.291 63.4502Z" fill="white"/>
<path d="M328.959 64.1686C317.753 64.1686 308.845 72.0703 308.845 84.8568C308.845 97.2123 317.753 105.689 328.959 105.689C340.021 105.689 349.503 97.6433 349.503 84.8568C349.503 72.5013 340.021 64.1686 328.959 64.1686ZM350.653 19.9187H368.18V120.343H351.802L350.653 110.573C345.193 119.05 336.43 121.923 327.81 121.923C306.978 121.923 291.318 108.131 291.318 84.8568C291.318 60.4332 306.69 47.7904 327.379 47.7904C334.849 47.7904 346.486 51.8131 350.653 59.1402V19.9187Z" fill="white"/>
<path d="M445.21 120.343H427.683V82.4145C427.683 73.076 422.798 64.5996 413.172 64.5996C403.69 64.5996 398.087 73.076 398.087 82.4145V120.343H380.559V49.3707H396.794L398.087 57.9908C401.822 50.8074 410.011 48.2214 416.764 48.2214C425.24 48.2214 433.717 51.6694 437.739 61.4389C444.061 51.3821 452.25 48.5087 461.445 48.5087C481.558 48.5087 491.471 60.8642 491.471 82.1271V120.343H473.944V82.1271C473.944 72.7887 470.065 64.8869 460.583 64.8869C451.101 64.8869 445.21 73.076 445.21 82.4145V120.343Z" fill="white"/>
<path d="M524.01 49.2271V120.343H506.482V49.2271H524.01ZM504.902 29.5445C504.902 43.193 525.59 43.193 525.59 29.5445C525.59 15.896 504.902 15.896 504.902 29.5445Z" fill="white"/>
<path d="M537.001 49.5144H553.235L554.528 57.7035C559.988 48.9397 567.315 47.6467 574.498 47.6467C581.825 47.6467 588.865 50.5201 592.744 54.3991L584.842 69.628C581.251 66.6109 577.946 65.0306 572.2 65.0306C563.005 65.0306 554.528 69.9153 554.528 82.9891V120.343H537.001V49.5144Z" fill="white"/>
<path d="M652.021 59.2838L652.595 49.5144H669.405V120.343H652.883L652.021 109.999C647.998 118.332 636.936 122.354 629.034 122.498C608.058 122.642 592.542 109.711 592.542 84.8568C592.542 60.4332 608.777 47.6467 629.465 47.7904C638.947 47.7904 647.998 52.2441 652.021 59.2838ZM631.045 63.4502C619.408 63.4502 610.07 71.352 610.07 84.8568C610.07 98.3616 619.408 106.407 631.045 106.407C658.63 106.407 658.63 63.4502 631.045 63.4502Z" fill="white"/>
<path d="M681.376 19.9187H698.76V120.343H681.376V19.9187Z" fill="white"/>
<rect x="0.760132" y="0.821777" width="157.239" height="157.239" rx="22.4628" fill="white"/>
<path d="M32.6265 112.23C30.0719 108.19 30.0719 103.046 32.6265 99.0055L63.2932 50.5064C70.56 39.014 74.1934 33.2678 79.467 33.2678C84.7405 33.2678 88.3739 39.014 95.6407 50.5064L104.359 64.2948C108.587 70.98 110.7 74.3227 109.889 77.679C109.078 81.0352 105.67 83.0505 98.8541 87.0809L49.473 116.28C43.6845 119.703 36.2163 117.908 32.6265 112.23Z" fill="#643ADD"/>
<path d="M123.569 105.854C123.569 112.632 118.06 118.127 111.265 118.127C104.469 118.127 98.9607 112.632 98.9607 105.854C98.9607 99.0758 104.469 93.5808 111.265 93.5808C118.06 93.5808 123.569 99.0758 123.569 105.854Z" fill="#8D68F5"/>
</svg>
