<svg width="13" height="11" viewBox="0 0 13 11" fill="none" xmlns="http://www.w3.org/2000/svg">
<path d="M4.08824 10.7817C8.99392 10.7817 11.6771 6.71736 11.6771 3.1928C11.6771 3.07736 11.6771 2.96244 11.6693 2.84804C12.1913 2.47048 12.6419 2.00298 13 1.46744C12.5133 1.68324 11.9969 1.8247 11.4681 1.88708C12.0249 1.55379 12.4416 1.02951 12.6407 0.411842C12.1171 0.722546 11.5443 0.941498 10.947 1.05924C10.5449 0.631638 10.013 0.348489 9.43377 0.253613C8.8545 0.158736 8.2601 0.257421 7.74257 0.534396C7.22503 0.811371 6.8132 1.25119 6.57082 1.78581C6.32843 2.32042 6.269 2.92001 6.40172 3.4918C5.34132 3.43861 4.30395 3.16303 3.35695 2.68294C2.40996 2.20286 1.5745 1.52901 0.9048 0.705122C0.563728 1.29229 0.459264 1.98737 0.612679 2.64885C0.766094 3.31033 1.16585 3.88847 1.73056 4.26556C1.30608 4.25312 0.890851 4.13861 0.52 3.93172V3.96552C0.520169 4.58132 0.733336 5.17809 1.12335 5.65464C1.51336 6.13118 2.0562 6.45815 2.6598 6.58008C2.26714 6.68719 1.85514 6.70284 1.45548 6.62584C1.62598 7.15577 1.95782 7.61917 2.40459 7.95127C2.85136 8.28336 3.39074 8.46755 3.94732 8.47808C3.39432 8.91276 2.76105 9.23414 2.08372 9.42383C1.4064 9.61353 0.698325 9.66782 0 9.5836C1.21974 10.3663 2.63896 10.7815 4.08824 10.7796" fill="#1DA1F2"/>
</svg>
