<svg width="699" height="158" viewBox="0 0 699 158" fill="none" xmlns="http://www.w3.org/2000/svg">
<path d="M265.267 59.0446L265.841 49.2751H282.651V120.104H266.129L265.267 109.76C261.244 118.092 250.181 122.115 242.28 122.259C221.304 122.402 205.788 109.472 205.788 84.6176C205.788 60.1939 222.022 47.4074 242.711 47.5511C252.193 47.5511 261.244 52.0048 265.267 59.0446ZM244.291 63.211C232.654 63.211 223.316 71.1127 223.316 84.6176C223.316 98.1224 232.654 106.168 244.291 106.168C271.875 106.168 271.875 63.211 244.291 63.211Z" fill="#292929"/>
<path d="M328.959 63.9293C317.753 63.9293 308.845 71.8311 308.845 84.6176C308.845 96.973 317.753 105.449 328.959 105.449C340.021 105.449 349.503 97.404 349.503 84.6176C349.503 72.2621 340.021 63.9293 328.959 63.9293ZM350.653 19.6794H368.18V120.104H351.802L350.653 110.334C345.193 118.811 336.43 121.684 327.81 121.684C306.978 121.684 291.318 107.892 291.318 84.6176C291.318 60.1939 306.69 47.5511 327.379 47.5511C334.849 47.5511 346.486 51.5738 350.653 58.9009V19.6794Z" fill="#292929"/>
<path d="M445.21 120.104H427.683V82.1752C427.683 72.8367 422.798 64.3603 413.172 64.3603C403.69 64.3603 398.087 72.8367 398.087 82.1752V120.104H380.559V49.1315H396.794L398.087 57.7516C401.822 50.5681 410.011 47.9821 416.764 47.9821C425.24 47.9821 433.717 51.4302 437.739 61.1996C444.061 51.1428 452.25 48.2695 461.445 48.2695C481.558 48.2695 491.471 60.6249 491.471 81.8879V120.104H473.944V81.8879C473.944 72.5494 470.065 64.6477 460.583 64.6477C451.101 64.6477 445.21 72.8367 445.21 82.1752V120.104Z" fill="#292929"/>
<path d="M524.01 48.9878V120.104H506.482V48.9878H524.01ZM504.902 29.3052C504.902 42.9537 525.59 42.9537 525.59 29.3052C525.59 15.6567 504.902 15.6567 504.902 29.3052Z" fill="#292929"/>
<path d="M537.001 49.2751H553.235L554.528 57.4642C559.988 48.7005 567.315 47.4074 574.498 47.4074C581.825 47.4074 588.865 50.2808 592.744 54.1599L584.842 69.3887C581.251 66.3717 577.946 64.7913 572.2 64.7913C563.005 64.7913 554.528 69.676 554.528 82.7499V120.104H537.001V49.2751Z" fill="#292929"/>
<path d="M652.021 59.0446L652.595 49.2751H669.405V120.104H652.883L652.021 109.76C647.998 118.092 636.936 122.115 629.034 122.259C608.058 122.402 592.542 109.472 592.542 84.6176C592.542 60.1939 608.777 47.4074 629.465 47.5511C638.947 47.5511 647.998 52.0048 652.021 59.0446ZM631.045 63.211C619.408 63.211 610.07 71.1127 610.07 84.6176C610.07 98.1224 619.408 106.168 631.045 106.168C658.63 106.168 658.63 63.211 631.045 63.211Z" fill="#292929"/>
<path d="M681.376 19.6794H698.76V120.104H681.376V19.6794Z" fill="#292929"/>
<rect x="0.760132" y="0.58252" width="157.239" height="157.239" rx="22.4628" fill="#643ADD"/>
<path d="M32.6265 111.991C30.0719 107.951 30.0719 102.807 32.6265 98.7664L63.2932 50.2673C70.56 38.775 74.1934 33.0288 79.467 33.0288C84.7405 33.0288 88.3739 38.775 95.6407 50.2674L104.359 64.0558C108.587 70.741 110.7 74.0837 109.889 77.4399C109.078 80.7962 105.67 82.8115 98.8541 86.8419L49.473 116.041C43.6845 119.464 36.2163 117.669 32.6265 111.991Z" fill="#FAFBFF"/>
<path d="M123.569 105.615C123.569 112.393 118.06 117.888 111.265 117.888C104.469 117.888 98.9607 112.393 98.9607 105.615C98.9607 98.8367 104.469 93.3418 111.265 93.3418C118.06 93.3418 123.569 98.8367 123.569 105.615Z" fill="#ADEE5B"/>
</svg>
