<svg width="569" height="284" viewBox="0 0 569 284" fill="none" xmlns="http://www.w3.org/2000/svg">
<path d="M111.5 252L101.617 176.158C98.2883 149.46 117.207 127.816 143.902 127.816H188.54" stroke="#B6AFC7" stroke-width="2" stroke-linecap="round" stroke-linejoin="round"/>
<path d="M216.517 126.624L222.06 118.772L220.601 108.231C220.21 107.485 219.808 106.708 219.396 105.906C189.129 110.437 185.446 123.195 192.243 136.859C142.035 146.721 120.176 224.245 133.236 261.028C136.957 271.482 139.943 281.937 150.997 282.055" stroke="#B6AFC7" stroke-width="2" stroke-linecap="round" stroke-linejoin="round"/>
<path d="M232.304 154.806C232.304 154.74 232.304 154.673 232.304 154.607C233.946 154.767 235.539 154.778 237.077 153.44C240.888 150.119 242.239 149.122 242.239 149.122C242.239 149.122 242.586 149.54 243.199 150.248C243.951 148.854 244.734 147.407 245.534 145.944C229.082 133.127 216.517 126.624 216.517 126.624L215.589 125.955L209.547 133.367C209.547 133.367 219.378 140.183 232.304 154.806Z" fill="#D0CADE"/>
<path d="M311.83 275.127C311.83 275.127 285.501 203.9 288.851 181.827C290.677 169.787 287.812 156.133 283.856 145.585L276.314 146.076L267.286 167.55C267.875 167.696 268.464 167.818 269.053 167.898C269.053 167.898 268.706 170.153 267.854 175.335C267.283 178.789 268.263 179.168 269.039 181.566C270.04 183.179 270.809 184.992 269.964 187.793C269.687 188.71 269.029 197.342 267.539 209.051C270.31 214.975 272.957 221.227 275.438 227.869C291.401 270.705 289.742 275.378 289.742 275.378L311.83 275.127Z" fill="#D0CADE"/>
<path d="M400.99 281.494C399.095 268.949 385.581 201.611 308.265 142.546C306.533 131.994 302.151 115.385 279.629 107.621" stroke="#B6AFC7" stroke-width="2" stroke-linecap="round" stroke-linejoin="round"/>
<path d="M295.121 178.078C295.121 178.078 294.29 200.827 299.24 217.181" stroke="#B6AFC7" stroke-width="2" stroke-linecap="round" stroke-linejoin="round"/>
<path d="M307.24 142.285C307.486 143.769 307.676 145.135 307.86 146.334C309.987 160.211 305.435 169.425 302.424 175.813C310.506 170.063 315.956 159.127 318.706 150.788C315.384 148.111 310.849 144.989 307.24 142.285Z" fill="#B6AFC7"/>
<path d="M193.043 136.242C187.389 137.403 178.098 140.236 171.402 144.895C176.079 147.46 199.241 161.413 218.17 169.784C218.319 169.697 219.358 167.954 219.877 167.275C209.401 158.918 198.382 147.007 193.043 136.242Z" fill="#B6AFC7"/>
<path d="M208.289 80.7388C208.289 80.7388 195.433 84.2445 200.637 95.288C204.253 102.955 211.12 100.23 215.214 97.9052" stroke="#B6AFC7" stroke-width="2" stroke-linecap="round" stroke-linejoin="round"/>
<path d="M211.719 82.8367L215.758 81.4741C218.422 83.0946 227.222 94.0928 230.059 99.5431C230.059 99.5431 242.977 91.1132 263.143 85.7222C263.143 85.7222 274.121 83.1991 278.895 83.4013C277.509 72.2497 274.675 58.0036 269.687 45.2665C262.266 26.3333 239.305 33.6793 235.972 34.8119C200.162 47.0681 211.684 82.7566 211.684 82.7566L211.719 82.8367Z" stroke="#B6AFC7" stroke-width="2" stroke-linecap="round" stroke-linejoin="round"/>
<path d="M252.022 129.569C247.713 129.569 243.615 128.847 240.389 127.565C229.927 123.407 227.703 120.728 223.948 114.406C220.193 108.084 208.425 83.9519 208.425 83.9519L215.758 81.4741C218.422 83.0946 227.222 94.0928 230.059 99.5431C230.059 99.5431 242.977 91.1132 263.143 85.7222C263.143 85.7222 274.228 83.1713 278.971 83.4013C278.971 83.4013 281.237 94.741 279.879 105.858" stroke="#B6AFC7" stroke-width="2" stroke-linecap="round" stroke-linejoin="round"/>
<path d="M209.325 87.1056C209.325 87.1056 202.701 79.3797 197.917 70.1483C193.414 61.471 195.281 50.7202 202.747 44.4475C208.996 39.1819 214.944 40.5758 214.944 40.5758C214.944 40.5758 204.184 29.5497 212.668 15.2862C214.153 12.7905 216.129 10.6261 218.475 8.92547C220.821 7.22488 223.487 6.02393 226.311 5.39619C240.237 2.32604 247.443 13.0106 247.443 13.0106C247.443 13.0106 263.425 -1.63722 276.854 0.284088C288.121 1.89613 294.04 7.69202 296.974 16.4043C302.429 32.6039 287.348 44.0607 270.584 50.1313C252.178 56.7943 240.341 56.4284 233.107 53.313C238.307 54.9055 238.498 84.4118 209.325 87.1056Z" fill="#B6AFC7"/>
<path d="M262.443 77.4979L268.935 94.8734L262.263 94.8386" stroke="#B6AFC7" stroke-width="2" stroke-linecap="round" stroke-linejoin="round"/>
<path d="M258.878 109.931C260.69 109.931 262.159 108.454 262.159 106.631C262.159 104.809 260.69 103.331 258.878 103.331C257.066 103.331 255.598 104.809 255.598 106.631C255.598 108.454 257.066 109.931 258.878 109.931Z" fill="#B6AFC7"/>
<path d="M270.123 78.9348C271.129 78.6817 271.629 77.2066 271.239 75.6401C270.85 74.0736 269.719 73.0088 268.713 73.2619C267.707 73.5149 267.207 74.99 267.596 76.5565C267.986 78.1231 269.117 79.1878 270.123 78.9348Z" fill="#B6AFC7"/>
<path d="M252.506 83.0379C253.512 82.7849 254.012 81.3098 253.622 79.7433C253.233 78.1767 252.101 77.112 251.095 77.365C250.089 77.6181 249.59 79.0932 249.979 80.6597C250.368 82.2262 251.5 83.291 252.506 83.0379Z" fill="#B6AFC7"/>
<path d="M240.303 69.1307C240.927 67.7137 241.918 66.4912 243.172 65.5908C244.426 64.6903 245.897 64.1449 247.432 64.0115" stroke="#B6AFC7" stroke-width="2" stroke-linecap="round" stroke-linejoin="round"/>
<path d="M264.088 59.5056C264.088 59.5056 268.814 56.9163 271.11 60.7531" stroke="#B6AFC7" stroke-width="2" stroke-linecap="round" stroke-linejoin="round"/>
<path d="M469.062 185.162H334.372C333.514 185.163 332.681 185.455 332.008 185.99C331.335 186.526 330.862 187.274 330.665 188.114L311.937 267.855H263.115C263.115 267.855 260.409 281.913 276.186 281.913H448.149C449.007 281.912 449.839 281.62 450.512 281.085C451.185 280.549 451.658 279.801 451.855 278.961L472.776 189.877C472.909 189.314 472.912 188.728 472.787 188.163C472.662 187.598 472.412 187.069 472.055 186.615C471.697 186.162 471.242 185.795 470.724 185.544C470.206 185.292 469.638 185.162 469.062 185.162Z" fill="#B6AFC7"/>
<path d="M415.63 60.8716H414.57C413.613 60.8716 412.837 61.6517 412.837 62.614V65.3636C412.837 66.3259 413.613 67.106 414.57 67.106H415.63C416.586 67.106 417.362 66.3259 417.362 65.3636V62.614C417.362 61.6517 416.586 60.8716 415.63 60.8716Z" fill="#D0CADE"/>
<path d="M409.366 60.8716H381.721C380.765 60.8716 379.989 61.6517 379.989 62.614V65.3636C379.989 66.3259 380.765 67.106 381.721 67.106H409.366C410.323 67.106 411.098 66.3259 411.098 65.3636V62.614C411.098 61.6517 410.323 60.8716 409.366 60.8716Z" fill="#B6AFC7"/>
<path d="M412.183 89.8307H381.721C380.765 89.8307 379.989 90.6108 379.989 91.5731V94.3227C379.989 95.285 380.765 96.0651 381.721 96.0651H412.183C413.139 96.0651 413.915 95.285 413.915 94.3227V91.5731C413.915 90.6108 413.139 89.8307 412.183 89.8307Z" fill="#B6AFC7"/>
<path d="M439.454 80.1881H390.299C389.342 80.1881 388.567 80.9682 388.567 81.9305V84.6801C388.567 85.6424 389.342 86.4225 390.299 86.4225H439.454C440.41 86.4225 441.186 85.6424 441.186 84.6801V81.9305C441.186 80.9682 440.41 80.1881 439.454 80.1881Z" fill="#D0CADE"/>
<path d="M470.819 80.1881H445.863C444.906 80.1881 444.13 80.9682 444.13 81.9305V84.6801C444.13 85.6424 444.906 86.4225 445.863 86.4225H470.819C471.776 86.4225 472.551 85.6424 472.551 84.6801V81.9305C472.551 80.9682 471.776 80.1881 470.819 80.1881Z" fill="#D0CADE"/>
<path d="M480.439 70.5491H479.379C478.422 70.5491 477.647 71.3292 477.647 72.2915V75.0411C477.647 76.0034 478.422 76.7835 479.379 76.7835H480.439C481.396 76.7835 482.171 76.0034 482.171 75.0411V72.2915C482.171 71.3292 481.396 70.5491 480.439 70.5491Z" fill="#B6AFC7"/>
<path d="M432.667 70.5316H381.721C380.765 70.5316 379.989 71.3117 379.989 72.274V75.0236C379.989 75.9859 380.765 76.766 381.721 76.766H432.667C433.624 76.766 434.399 75.9859 434.399 75.0236V72.274C434.399 71.3117 433.624 70.5316 432.667 70.5316Z" fill="#B6AFC7"/>
<path d="M448.734 60.8716H421.09C420.133 60.8716 419.357 61.6517 419.357 62.614V65.3636C419.357 66.3259 420.133 67.106 421.09 67.106H448.734C449.691 67.106 450.467 66.3259 450.467 65.3636V62.614C450.467 61.6517 449.691 60.8716 448.734 60.8716Z" fill="#B6AFC7"/>
<path d="M473.483 70.5107H438.567C437.61 70.5107 436.834 71.2909 436.834 72.2532V75.0411C436.834 76.0034 437.61 76.7835 438.567 76.7835H473.483C474.44 76.7835 475.215 76.0034 475.215 75.0411V72.2532C475.215 71.2909 474.44 70.5107 473.483 70.5107Z" fill="#D0CADE"/>
<path d="M409.366 123.38H381.721C380.765 123.38 379.989 124.16 379.989 125.122V127.872C379.989 128.834 380.765 129.614 381.721 129.614H409.366C410.323 129.614 411.098 128.834 411.098 127.872V125.122C411.098 124.16 410.323 123.38 409.366 123.38Z" fill="#B6AFC7"/>
<path d="M412.183 152.339H381.721C380.765 152.339 379.989 153.119 379.989 154.081V156.831C379.989 157.793 380.765 158.573 381.721 158.573H412.183C413.139 158.573 413.915 157.793 413.915 156.831V154.081C413.915 153.119 413.139 152.339 412.183 152.339Z" fill="#B6AFC7"/>
<path d="M439.454 142.7H390.299C389.342 142.7 388.567 143.48 388.567 144.442V147.192C388.567 148.154 389.342 148.934 390.299 148.934H439.454C440.41 148.934 441.186 148.154 441.186 147.192V144.442C441.186 143.48 440.41 142.7 439.454 142.7Z" fill="#D0CADE"/>
<path d="M470.819 142.7H445.863C444.906 142.7 444.13 143.48 444.13 144.442V147.192C444.13 148.154 444.906 148.934 445.863 148.934H470.819C471.776 148.934 472.551 148.154 472.551 147.192V144.442C472.551 143.48 471.776 142.7 470.819 142.7Z" fill="#D0CADE"/>
<path d="M480.439 133.057H479.379C478.422 133.057 477.647 133.837 477.647 134.799V137.549C477.647 138.511 478.422 139.291 479.379 139.291H480.439C481.396 139.291 482.171 138.511 482.171 137.549V134.799C482.171 133.837 481.396 133.057 480.439 133.057Z" fill="#B6AFC7"/>
<path d="M488.352 123.38H487.292C486.335 123.38 485.56 124.16 485.56 125.122V127.872C485.56 128.834 486.335 129.614 487.292 129.614H488.352C489.308 129.614 490.084 128.834 490.084 127.872V125.122C490.084 124.16 489.308 123.38 488.352 123.38Z" fill="#B6AFC7"/>
<path d="M432.667 133.04H381.721C380.765 133.04 379.989 133.82 379.989 134.782V137.532C379.989 138.494 380.765 139.274 381.721 139.274H432.667C433.624 139.274 434.399 138.494 434.399 137.532V134.782C434.399 133.82 433.624 133.04 432.667 133.04Z" fill="#B6AFC7"/>
<path d="M448.734 123.38H414.57C413.613 123.38 412.837 124.16 412.837 125.122V127.872C412.837 128.834 413.613 129.614 414.57 129.614H448.734C449.691 129.614 450.466 128.834 450.466 127.872V125.122C450.466 124.16 449.691 123.38 448.734 123.38Z" fill="#D0CADE"/>
<path d="M482.241 123.38H454.596C453.639 123.38 452.864 124.16 452.864 125.122V127.872C452.864 128.834 453.639 129.614 454.596 129.614H482.241C483.197 129.614 483.973 128.834 483.973 127.872V125.122C483.973 124.16 483.197 123.38 482.241 123.38Z" fill="#D0CADE"/>
<path d="M415.63 114.037H414.57C413.613 114.037 412.837 114.817 412.837 115.779V118.529C412.837 119.491 413.613 120.271 414.57 120.271H415.63C416.586 120.271 417.362 119.491 417.362 118.529V115.779C417.362 114.817 416.586 114.037 415.63 114.037Z" fill="#D0CADE"/>
<path d="M409.366 114.037H381.721C380.765 114.037 379.989 114.817 379.989 115.779V118.529C379.989 119.491 380.765 120.271 381.721 120.271H409.366C410.323 120.271 411.098 119.491 411.098 118.529V115.779C411.098 114.817 410.323 114.037 409.366 114.037Z" fill="#B6AFC7"/>
<path d="M448.734 114.037H421.09C420.133 114.037 419.357 114.817 419.357 115.779V118.529C419.357 119.491 420.133 120.271 421.09 120.271H448.734C449.691 120.271 450.467 119.491 450.467 118.529V115.779C450.467 114.817 449.691 114.037 448.734 114.037Z" fill="#B6AFC7"/>
<path d="M473.483 133.022H438.567C437.61 133.022 436.834 133.802 436.834 134.765V137.552C436.834 138.515 437.61 139.295 438.567 139.295H473.483C474.44 139.295 475.215 138.515 475.215 137.552V134.765C475.215 133.802 474.44 133.022 473.483 133.022Z" fill="#D0CADE"/>
<path d="M514.216 245.28C514.972 245.014 515.759 244.849 516.558 244.788C517.827 244.696 519.101 244.875 520.296 245.313C521.492 245.751 522.582 246.438 523.495 247.329C524.408 248.22 525.124 249.295 525.596 250.484C526.067 251.673 526.283 252.948 526.231 254.227C526.178 255.506 525.857 256.759 525.289 257.904C524.721 259.049 523.92 260.061 522.936 260.873C521.952 261.685 520.809 262.279 519.582 262.615C518.354 262.952 517.07 263.023 515.813 262.826" stroke="#B6AFC7" stroke-width="2" stroke-linecap="round" stroke-linejoin="round"/>
<path d="M492.453 246.464L479.542 230.608" stroke="#B6AFC7" stroke-width="2" stroke-linecap="round" stroke-linejoin="round"/>
<path d="M477.647 241.551V271.454C477.647 274.227 478.742 276.886 480.691 278.847C482.64 280.808 485.283 281.909 488.04 281.909H505.569C508.325 281.909 510.969 280.808 512.918 278.847C514.867 276.886 515.962 274.227 515.962 271.454V241.551H477.647Z" fill="#B6AFC7"/>
<path d="M95.7507 266.981C94.8051 267.048 93.855 266.935 92.9547 266.646C92.0544 266.358 91.2215 265.9 90.5036 265.3C89.7857 264.699 89.1968 263.968 88.7706 263.147C88.3444 262.326 88.0892 261.431 88.0195 260.514C87.9499 259.598 88.0671 258.677 88.3647 257.804C88.6622 256.931 89.1341 256.124 89.7536 255.428C90.373 254.732 91.1277 254.161 91.9747 253.748C92.8217 253.334 93.7444 253.087 94.69 253.019C95.1264 252.988 95.5649 252.995 96 253.041" stroke="#B6AFC7" stroke-width="2" stroke-linecap="round" stroke-linejoin="round"/>
<path d="M95 250V273.71C95 275.909 95.8573 278.017 97.3832 279.572C98.9091 281.127 100.979 282 103.137 282H116.863C119.021 282 121.091 281.127 122.617 279.572C124.143 278.017 125 275.909 125 273.71V250H95Z" fill="#B6AFC7"/>
<path d="M148.042 229.5L143.307 220.854" stroke="#B6AFC7" stroke-width="2" stroke-linecap="round" stroke-linejoin="round"/>
<path d="M137.528 230.424H163.777" stroke="#B6AFC7" stroke-width="2" stroke-linecap="round" stroke-linejoin="round"/>
<path d="M160.143 258.581C159.81 258.243 159.37 258.032 158.899 257.984C158.428 257.935 157.955 258.053 157.561 258.316C157.167 258.579 156.875 258.972 156.737 259.427C156.598 259.883 156.621 260.372 156.802 260.812C156.982 261.252 157.309 261.616 157.726 261.841C158.143 262.066 158.625 262.138 159.089 262.046C159.553 261.953 159.971 261.701 160.271 261.333C160.572 260.965 160.736 260.504 160.735 260.028C160.739 259.759 160.689 259.492 160.587 259.243C160.485 258.995 160.334 258.77 160.143 258.581Z" fill="#B6AFC7"/>
<path d="M158.702 255.529C159.173 255.532 159.63 255.371 159.996 255.072C160.362 254.774 160.614 254.357 160.708 253.893C160.803 253.429 160.734 252.946 160.514 252.527C160.294 252.108 159.936 251.779 159.501 251.596C159.067 251.413 158.582 251.388 158.131 251.524C157.68 251.66 157.29 251.95 157.028 252.343C156.765 252.737 156.647 253.21 156.692 253.681C156.738 254.153 156.945 254.594 157.278 254.929C157.462 255.121 157.684 255.273 157.929 255.376C158.173 255.479 158.436 255.531 158.702 255.529Z" fill="#B6AFC7"/>
<path d="M160.143 268.022C160.479 267.687 160.689 267.245 160.737 266.771C160.785 266.298 160.669 265.822 160.407 265.425C160.146 265.029 159.756 264.736 159.303 264.596C158.851 264.456 158.364 264.479 157.927 264.66C157.489 264.841 157.127 265.169 156.903 265.588C156.679 266.008 156.607 266.492 156.698 266.959C156.79 267.426 157.04 267.847 157.405 268.149C157.77 268.452 158.229 268.617 158.702 268.618C158.97 268.622 159.236 268.572 159.483 268.469C159.731 268.367 159.956 268.215 160.143 268.022Z" fill="#B6AFC7"/>
<path d="M166.358 236.731L161.754 230.706H139.551L134.947 236.731C134.506 237.287 134.262 237.975 134.254 238.686V275.368C134.272 275.955 134.439 276.528 134.74 277.031C135.041 277.535 135.465 277.952 135.973 278.243C137.396 279.135 139.212 280.515 139.34 281.836H161.965C162.09 280.515 163.905 279.135 165.329 278.243C165.835 277.95 166.258 277.531 166.557 277.026C166.856 276.522 167.021 275.948 167.037 275.361V238.686C167.032 237.977 166.793 237.29 166.358 236.731ZM156.72 243.767L159.145 239.697C159.179 239.632 159.228 239.577 159.289 239.538C159.349 239.498 159.419 239.475 159.492 239.47C159.567 239.472 159.641 239.494 159.706 239.534C159.77 239.573 159.823 239.63 159.859 239.697L162.284 243.767C162.319 243.83 162.337 243.901 162.336 243.973C162.337 244.026 162.327 244.079 162.307 244.128C162.286 244.177 162.256 244.222 162.218 244.259C162.181 244.298 162.136 244.328 162.087 244.349C162.037 244.37 161.984 244.381 161.93 244.381C161.86 244.379 161.791 244.358 161.73 244.322C161.669 244.285 161.619 244.233 161.584 244.172L159.505 240.687L157.427 244.172C157.392 244.233 157.341 244.285 157.281 244.321C157.22 244.358 157.151 244.378 157.08 244.381C157.027 244.381 156.974 244.37 156.924 244.349C156.875 244.328 156.83 244.298 156.793 244.259C156.754 244.222 156.724 244.178 156.703 244.128C156.682 244.079 156.671 244.026 156.672 243.973C156.669 243.901 156.686 243.83 156.72 243.767ZM156.88 245.301C156.949 245.249 157.033 245.222 157.119 245.224C157.172 245.224 157.225 245.234 157.275 245.255C157.324 245.276 157.369 245.307 157.406 245.346C157.445 245.383 157.475 245.428 157.495 245.478C157.515 245.528 157.525 245.581 157.524 245.635C157.526 245.685 157.518 245.735 157.499 245.781C157.481 245.827 157.452 245.869 157.417 245.904L157.264 246.053C157.072 246.241 156.92 246.466 156.818 246.715C156.715 246.963 156.664 247.23 156.668 247.5C156.657 247.75 156.698 248.001 156.789 248.234C156.881 248.468 157.02 248.679 157.198 248.855C157.296 248.935 157.419 248.979 157.545 248.977C157.618 248.976 157.69 248.951 157.748 248.905C157.807 248.86 157.85 248.797 157.87 248.726L158.698 246.21C158.773 245.971 158.897 245.75 159.062 245.562C159.173 245.447 159.307 245.357 159.455 245.297C159.603 245.237 159.762 245.208 159.921 245.213C160.086 245.213 160.248 245.246 160.4 245.311C160.551 245.375 160.687 245.47 160.801 245.59C161.05 245.842 161.245 246.143 161.373 246.474C161.501 246.805 161.56 247.159 161.546 247.514C161.548 247.933 161.457 248.348 161.281 248.728C161.104 249.109 160.845 249.445 160.524 249.712C160.491 249.74 160.453 249.762 160.412 249.775C160.371 249.788 160.328 249.793 160.285 249.789C160.232 249.79 160.179 249.779 160.129 249.759C160.08 249.739 160.035 249.709 159.997 249.671C159.96 249.633 159.93 249.588 159.91 249.538C159.889 249.488 159.879 249.435 159.88 249.381C159.877 249.331 159.885 249.281 159.904 249.234C159.922 249.187 159.951 249.144 159.987 249.11L160.139 248.96C160.331 248.772 160.482 248.547 160.584 248.298C160.686 248.05 160.736 247.782 160.732 247.514C160.744 247.263 160.703 247.013 160.613 246.779C160.522 246.546 160.383 246.334 160.205 246.158C160.107 246.078 159.985 246.035 159.859 246.036C159.785 246.037 159.714 246.063 159.655 246.108C159.597 246.153 159.554 246.216 159.533 246.287L158.702 248.803C158.632 249.041 158.514 249.261 158.355 249.451C158.244 249.566 158.11 249.656 157.962 249.716C157.814 249.776 157.656 249.805 157.496 249.8C157.332 249.8 157.169 249.767 157.018 249.702C156.867 249.638 156.73 249.543 156.616 249.423C156.367 249.171 156.173 248.871 156.044 248.54C155.916 248.209 155.857 247.855 155.871 247.5C155.868 247.081 155.956 246.667 156.13 246.286C156.305 245.906 156.56 245.569 156.88 245.301ZM156.689 251.458C157.155 250.988 157.768 250.695 158.425 250.629C159.081 250.563 159.74 250.728 160.289 251.096C160.839 251.464 161.244 252.012 161.436 252.647C161.628 253.282 161.596 253.964 161.344 254.578C161.092 255.191 160.636 255.698 160.055 256.011C159.473 256.324 158.801 256.425 158.154 256.296C157.507 256.167 156.924 255.816 156.505 255.303C156.087 254.79 155.858 254.147 155.858 253.483C155.851 253.106 155.922 252.732 156.065 252.384C156.208 252.036 156.42 251.721 156.689 251.458ZM155.975 269.318C155.92 269.261 155.883 269.188 155.868 269.109C155.853 269.03 155.861 268.949 155.892 268.875C155.922 268.801 155.974 268.737 156.04 268.692C156.106 268.647 156.183 268.623 156.263 268.621H156.71C156.238 268.156 155.941 267.54 155.87 266.879C155.799 266.218 155.959 265.553 156.322 264.997C156.685 264.441 157.229 264.03 157.86 263.833C158.492 263.636 159.171 263.666 159.783 263.917C160.395 264.169 160.901 264.626 161.215 265.212C161.528 265.797 161.63 266.474 161.502 267.126C161.374 267.779 161.025 268.366 160.514 268.788C160.004 269.21 159.363 269.441 158.702 269.44H156.277C156.221 269.443 156.165 269.433 156.113 269.412C156.061 269.391 156.014 269.359 155.975 269.318ZM162.312 270.869L159.887 274.939C159.851 275.006 159.798 275.063 159.733 275.103C159.669 275.143 159.595 275.164 159.519 275.166C159.447 275.161 159.377 275.138 159.316 275.098C159.256 275.059 159.206 275.004 159.173 274.939L156.748 270.869C156.713 270.806 156.695 270.735 156.696 270.663C156.696 270.61 156.706 270.557 156.727 270.508C156.748 270.459 156.779 270.414 156.817 270.378C156.854 270.338 156.898 270.307 156.948 270.286C156.998 270.265 157.051 270.254 157.105 270.256C157.175 270.258 157.244 270.278 157.305 270.315C157.366 270.352 157.416 270.403 157.451 270.465L159.53 273.95L161.608 270.465C161.643 270.403 161.694 270.351 161.754 270.315C161.815 270.278 161.884 270.258 161.955 270.256C162.062 270.257 162.165 270.3 162.24 270.376C162.316 270.452 162.359 270.556 162.36 270.663C162.362 270.735 162.346 270.806 162.312 270.869ZM163.881 262.774C163.844 262.812 163.799 262.842 163.749 262.863C163.7 262.883 163.647 262.893 163.593 262.892H158.702C158.044 262.891 157.407 262.661 156.899 262.241C156.391 261.821 156.043 261.237 155.915 260.588C155.787 259.939 155.887 259.265 156.197 258.681C156.507 258.098 157.009 257.641 157.617 257.388C158.225 257.135 158.901 257.101 159.53 257.293C160.16 257.485 160.704 257.891 161.069 258.441C161.435 258.991 161.6 259.651 161.536 260.31C161.472 260.968 161.183 261.584 160.718 262.052L160.697 262.073H163.593C163.647 262.073 163.7 262.083 163.75 262.104C163.799 262.125 163.844 262.156 163.881 262.195C163.92 262.232 163.951 262.277 163.971 262.327C163.992 262.377 164.003 262.43 164.002 262.484C164.002 262.538 163.991 262.592 163.971 262.641C163.95 262.691 163.919 262.736 163.881 262.774Z" fill="#B6AFC7"/>
<path d="M252.268 132.991C252.41 128.485 252.341 121.393 250.751 118.295C248.226 113.378 250.581 108.13 255.747 113.5C258.691 116.56 260.136 120.619 260.836 123.543" stroke="#B6AFC7" stroke-width="2" stroke-linecap="round" stroke-linejoin="round"/>
<path d="M295.883 125.76C300.871 125.76 304.915 121.692 304.915 116.675C304.915 111.657 300.871 107.59 295.883 107.59C290.896 107.59 286.852 111.657 286.852 116.675C286.852 121.692 290.896 125.76 295.883 125.76Z" stroke="#B6AFC7" stroke-width="2" stroke-linecap="round" stroke-linejoin="round"/>
<path d="M237.386 282.954C263.784 280.972 269.035 190.874 269.95 187.797C271.783 181.719 266.028 180.294 266.784 175.481C267.539 170.669 266.953 168.512 266.953 168.512C254.562 166.484 242.527 150.809 242.527 150.809C242.527 150.809 241.28 151.725 237.729 154.778C234.178 157.831 230.215 153.14 226.162 157.817C223.487 160.936 194.346 210.149 194.346 210.149" stroke="#B6AFC7" stroke-width="2" stroke-linecap="round" stroke-linejoin="round"/>
<path d="M267.854 175.339C268.713 170.157 269.053 167.902 269.053 167.902C255.857 165.86 242.25 149.122 242.25 149.122C242.25 149.122 240.906 150.119 237.088 153.44C235.55 154.778 233.97 154.768 232.314 154.607C231.147 169.143 257.067 182.082 269.344 182.692C268.561 179.2 267.206 179.273 267.854 175.339Z" fill="#B6AFC7"/>
<path d="M177.191 201.893C177.191 201.893 192.815 188.33 201.884 196.875" stroke="#B6AFC7" stroke-width="2" stroke-linecap="round" stroke-linejoin="round"/>
<path d="M237.109 161.751L263.285 177.06L276.387 145.899C289.028 145.919 288.973 139.013 286.326 138.776C283.679 138.539 270.969 140.333 270.969 140.333C270.969 140.333 271.381 139.403 281.708 137.43C292.035 135.458 290.095 129.67 287.874 129.513C285.654 129.356 269.243 133.492 269.243 133.492L283.343 128.429C288.363 126.826 288.54 121.933 285.917 121.243C284.185 120.787 274.949 123.596 267.64 126.167C267.64 126.167 276.425 121.637 280.592 118.898C284.76 116.159 281.847 112.587 279.411 112.81C276.976 113.033 260.056 124.414 256.834 127.234C253.613 130.053 237.109 161.751 237.109 161.751Z" stroke="#B6AFC7" stroke-width="2" stroke-linecap="round" stroke-linejoin="round"/>
<path d="M220.064 245.015C220.541 244.902 221.025 244.826 221.513 244.788C222.836 244.691 224.165 244.889 225.404 245.368C226.643 245.846 227.762 246.593 228.681 247.556C229.6 248.519 230.298 249.673 230.723 250.938C231.148 252.202 231.291 253.546 231.142 254.872C230.992 256.199 230.554 257.476 229.858 258.613C229.163 259.75 228.226 260.718 227.116 261.45C226.006 262.181 224.749 262.657 223.435 262.845C222.121 263.032 220.782 262.926 219.514 262.533" stroke="#B6AFC7" stroke-width="2" stroke-linecap="round" stroke-linejoin="round"/>
<path d="M182.602 241.551V271.454C182.602 274.227 183.697 276.886 185.646 278.847C187.595 280.808 190.238 281.909 192.995 281.909H210.524C213.28 281.909 215.924 280.808 217.873 278.847C219.822 276.886 220.917 274.227 220.917 271.454V241.551H182.602ZM198.101 263.446C198.208 263.508 198.296 263.598 198.357 263.706C198.418 263.813 198.449 263.936 198.447 264.06C198.447 264.244 198.374 264.422 198.244 264.552C198.115 264.683 197.938 264.757 197.755 264.757C197.633 264.758 197.514 264.728 197.408 264.669L190.48 260.488C190.361 260.431 190.26 260.342 190.189 260.23C190.119 260.119 190.081 259.989 190.081 259.857C190.081 259.725 190.119 259.595 190.189 259.483C190.26 259.372 190.361 259.282 190.48 259.226L197.408 255.044C197.514 254.985 197.633 254.955 197.755 254.957C197.846 254.957 197.937 254.975 198.021 255.01C198.105 255.046 198.182 255.098 198.246 255.163C198.313 255.226 198.365 255.303 198.4 255.389C198.436 255.474 198.453 255.565 198.451 255.658C198.453 255.782 198.421 255.904 198.36 256.012C198.3 256.119 198.211 256.209 198.104 256.271L192.142 259.867L198.101 263.446ZM206.762 253.138L201.184 267.165C201.147 267.236 201.099 267.301 201.042 267.356C200.978 267.423 200.9 267.475 200.815 267.511C200.73 267.547 200.639 267.565 200.547 267.565C200.363 267.565 200.187 267.492 200.057 267.361C199.927 267.231 199.854 267.053 199.854 266.868C199.854 266.767 199.874 266.666 199.913 266.572L205.49 252.546C205.529 252.471 205.579 252.403 205.639 252.343C205.703 252.278 205.779 252.226 205.863 252.192C205.947 252.157 206.037 252.14 206.128 252.141C206.311 252.141 206.488 252.215 206.618 252.346C206.748 252.476 206.821 252.653 206.821 252.838C206.823 252.946 206.805 253.052 206.765 253.152L206.762 253.138ZM216.202 260.47L209.273 264.652C209.167 264.711 209.048 264.741 208.927 264.739C208.743 264.739 208.567 264.666 208.437 264.535C208.307 264.404 208.234 264.227 208.234 264.042C208.232 263.918 208.263 263.796 208.324 263.688C208.385 263.58 208.474 263.491 208.58 263.429L214.539 259.836L208.58 256.24C208.474 256.178 208.385 256.088 208.324 255.98C208.263 255.872 208.232 255.75 208.234 255.626C208.232 255.534 208.249 255.442 208.284 255.357C208.32 255.272 208.372 255.195 208.438 255.131C208.503 255.066 208.579 255.014 208.664 254.979C208.748 254.944 208.839 254.926 208.93 254.926C209.051 254.924 209.171 254.954 209.277 255.013L216.205 259.195C216.324 259.251 216.425 259.34 216.495 259.452C216.566 259.564 216.603 259.693 216.603 259.825C216.603 259.958 216.566 260.087 216.495 260.199C216.425 260.311 216.324 260.4 216.205 260.456L216.202 260.47Z" fill="#B6AFC7"/>
<path d="M1.03931 282.784H567.961" stroke="#B6AFC7" stroke-width="2" stroke-linecap="round" stroke-linejoin="round"/>
<path d="M295.755 134.318L293.836 104.478L255.601 106.969L256.9 127.161C260.299 124.237 276.993 113.023 279.401 112.803C281.808 112.583 284.749 116.155 280.582 118.891C276.414 121.627 267.629 126.16 267.629 126.16C274.939 123.589 284.185 120.78 285.907 121.236C288.532 121.933 288.352 126.812 283.333 128.422L269.233 133.486C269.233 133.486 285.643 129.349 287.864 129.506C290.084 129.663 292.021 135.451 281.697 137.423C271.374 139.396 270.958 140.326 270.958 140.326C270.958 140.326 283.672 138.528 286.315 138.769C288.959 139.009 289.017 145.913 276.376 145.892L276.304 146.062L286.045 145.428C287.408 145.341 288.741 144.984 289.967 144.378C291.192 143.773 292.288 142.93 293.189 141.898C294.091 140.866 294.782 139.666 295.222 138.365C295.663 137.065 295.844 135.69 295.755 134.318Z" fill="#B6AFC7"/>
</svg>
